<svg xmlns="http://www.w3.org/2000/svg" width="23.265" height="23.265" viewBox="0 0 23.265 23.265"><defs><style>.a{fill:none;}.b{fill:#f57b52;}</style></defs><g transform="translate(-4.45 -4.45)"><g transform="translate(8.414 7.82)"><path class="a" d="M0,0H16.993V16.386H0Z" transform="translate(0 0)"/><path class="b" d="M3.15,6.462V10.71H4.875V6.462Zm3.45,0V10.71H8.325V6.462ZM2,13.745H12.924V11.924H2Zm8.049-7.283V10.71h1.725V6.462ZM7.462,1,2,4.035V5.248H12.924V4.035Z" transform="translate(0.428 0.214)"/></g><path class="b" d="M13.632,2A11.632,11.632,0,1,0,25.265,13.632,11.637,11.637,0,0,0,13.632,2Zm0,20.938a9.306,9.306,0,1,1,9.306-9.306A9.318,9.318,0,0,1,13.632,22.938Z" transform="translate(2.45 2.45)"/></g></svg>