<svg xmlns="http://www.w3.org/2000/svg" width="25" height="17.349" viewBox="0 0 25 17.349"><defs><style>.a{fill:#f57b52;}</style></defs><g transform="translate(0 -117.984)"><g transform="translate(0 110.333)"><g transform="translate(0 13.113)"><path class="a" d="M24.479,213.333H.521a.53.53,0,0,0-.521.594v8.321a2.779,2.779,0,0,0,2.6,2.972H22.4a2.779,2.779,0,0,0,2.6-2.972v-8.321A.53.53,0,0,0,24.479,213.333ZM3.646,218.088H7.813a.6.6,0,0,1,0,1.189H3.646a.6.6,0,0,1,0-1.189Zm7.292,3.566H3.646a.6.6,0,0,1,0-1.189h7.292a.6.6,0,0,1,0,1.189Zm8.854,0a1.61,1.61,0,0,1-1.042-.357,1.61,1.61,0,0,1-1.042.357,2.4,2.4,0,0,1,0-4.755,1.61,1.61,0,0,1,1.042.357,1.61,1.61,0,0,1,1.042-.357,2.4,2.4,0,0,1,0,4.755Z" transform="translate(0 -213.333)"/></g><g transform="translate(0 1.651)"><g transform="translate(0 6)"><path class="a" d="M22.4,85.333H2.6A2.637,2.637,0,0,0,0,88.051v1.087a.5.5,0,0,0,.521.544H24.479A.5.5,0,0,0,25,89.138V88.051A2.637,2.637,0,0,0,22.4,85.333Z" transform="translate(0 -85.333)"/></g></g></g></g></svg>