<svg xmlns="http://www.w3.org/2000/svg" width="21" height="21" viewBox="0 0 21 21"><defs><style>.a,.c{fill:#f57b52;}.b{fill:none;}.c{stroke:#f57b52;}</style></defs><g transform="translate(-531 -2382)"><g transform="translate(531 2382)"><path class="a" d="M19,8.1l-6.112-.522L10.5,2,8.111,7.583,2,8.1,6.641,12.08,5.247,18,10.5,14.859,15.753,18l-1.385-5.92Zm-8.5,5.187L7.3,15.2l.85-3.6L5.332,9.166l3.723-.32L10.5,5.453l1.454,3.4,3.723.32L12.854,11.6l.85,3.6Z"/><path class="b" d="M0,0H21V21H0Z"/></g><path class="c" d="M-8390.75,10643.188s3.313.688,4.063-.75.688-4,1.063-3.812,1.75,4.563,1.75,4.563h3.438a35.989,35.989,0,0,0-2.75,2.563c.125.063,1.063,3.688,1.063,3.688l-3.5-2.312-3.25,2.313,1-3.687Z" transform="translate(8927 -8252)"/></g></svg>