<svg xmlns="http://www.w3.org/2000/svg" width="20" height="18.35" viewBox="0 0 20 18.35"><defs><style>.a{fill:#f57b52;}</style></defs><path class="a" d="M16.5,3A5.988,5.988,0,0,0,12,5.09,5.988,5.988,0,0,0,7.5,3,5.447,5.447,0,0,0,2,8.5c0,3.78,3.4,6.86,8.55,11.54L12,21.35l1.45-1.32C18.6,15.36,22,12.28,22,8.5A5.447,5.447,0,0,0,16.5,3ZM12.1,18.55l8.175-9.376S20.981,7.538,18.981,5,4,11.39,4,8.5A3.418,3.418,0,0,1,7.5,5a3.909,3.909,0,0,1,3.57,2.36h1.87A3.885,3.885,0,0,1,16.5,5,3.418,3.418,0,0,1,20,8.5c0,2-12.761,7.063-12.761,7.063L9.527,18.15s.538-3.344,1.543-2.587,11.075-8.379,7.095-5.394C15.757,11.975,12.859,6.837,9.269,5,7.37,4.031,4,6.308,4,6.308V8.3l-.185.876" transform="translate(-2 -3)"/></svg>