<svg xmlns="http://www.w3.org/2000/svg" width="33.941" height="33.941" viewBox="0 0 33.941 33.941"><defs><style>.a{fill:#f57b52;}.b{fill:none;}.c{fill:#fff;}</style></defs><g transform="translate(-376.03 -2299.031)"><circle class="a" cx="14" cy="14" r="14" transform="translate(379 2302)"/><g transform="translate(409.971 2316.002) rotate(135)"><path class="b" d="M0,0H24V24H0Z"/><path class="c" d="M3.9,12A3.1,3.1,0,0,1,7,8.9h4V7H7A5,5,0,0,0,7,17h4V15.1H7A3.1,3.1,0,0,1,3.9,12ZM8,13h8V11H8Zm9-6H13V8.9h4a3.1,3.1,0,1,1,0,6.2H13V17h4A5,5,0,0,0,17,7Z"/></g></g></svg>