<svg xmlns="http://www.w3.org/2000/svg" width="29.801" height="29.801" viewBox="0 0 29.801 29.801"><defs><style>.a{fill:none;stroke:#f57b52;}.b{fill:#fff;}.c{fill:#f57b52;}</style></defs><g transform="translate(-67.6 -693.6)"><g transform="translate(71 695)"><g transform="translate(-2.9 -0.9)"><path class="a" d="M16.4,2A14.4,14.4,0,1,0,30.8,16.4,14.406,14.406,0,0,0,16.4,2Zm0,25.921A11.52,11.52,0,1,1,27.921,16.4,11.536,11.536,0,0,1,16.4,27.921Z" transform="translate(-2 -2)"/><path class="b" d="M14.189,13.842c-2.549-.648-3.37-1.354-3.37-2.4,0-1.21,1.138-2.059,3.024-2.059,1.987,0,2.736.95,2.794,2.362H19.1a4.468,4.468,0,0,0-3.586-4.277V5H12.159V7.434c-2.174.461-3.917,1.872-3.917,4.047,0,2.578,2.146,3.874,5.271,4.623,2.808.662,3.37,1.656,3.37,2.693,0,.763-.562,2-3.024,2-2.3,0-3.211-1.037-3.341-2.362H8.04c.144,2.448,1.958,3.831,4.119,4.277v2.448h3.37v-2.4c2.189-.418,3.917-1.67,3.931-3.989C19.445,15.6,16.723,14.5,14.189,13.842Z" transform="translate(0.658 -0.68)"/></g></g><circle class="c" cx="11.734" cy="11.734" r="11.734" transform="translate(70.766 696.767)"/><path class="b" d="M14.189,13.842c-2.549-.648-3.37-1.354-3.37-2.4,0-1.21,1.138-2.059,3.024-2.059,1.987,0,2.736.95,2.794,2.362H19.1a4.468,4.468,0,0,0-3.586-4.277V5H12.159V7.434c-2.174.461-3.917,1.872-3.917,4.047,0,2.578,2.146,3.874,5.271,4.623,2.808.662,3.37,1.656,3.37,2.693,0,.763-.562,2-3.024,2-2.3,0-3.211-1.037-3.341-2.362H8.04c.144,2.448,1.958,3.831,4.119,4.277v2.448h3.37v-2.4c2.189-.418,3.917-1.67,3.931-3.989C19.445,15.6,16.723,14.5,14.189,13.842Z" transform="translate(68.757 693.42)"/></g></svg>