<svg xmlns="http://www.w3.org/2000/svg" width="26" height="26" viewBox="0 0 26 26"><defs><style>.a{fill:none;}.b{fill:#f57b52;}</style></defs><path class="a" d="M0,0H26V26H0Z"/><g transform="translate(2.167 2.167)"><path class="b" d="M12.833,2A10.833,10.833,0,1,0,23.667,12.833,10.837,10.837,0,0,0,12.833,2ZM7.492,19.637c.466-.975,3.3-1.928,5.341-1.928s4.886.953,5.341,1.928a8.586,8.586,0,0,1-10.682,0Zm12.231-1.571c-1.549-1.885-5.308-2.524-6.89-2.524s-5.341.639-6.89,2.524a8.667,8.667,0,1,1,13.78,0Z" transform="translate(-2 -2)"/><path class="b" d="M12.292,6a3.792,3.792,0,1,0,3.792,3.792A3.782,3.782,0,0,0,12.292,6Zm0,5.417a1.625,1.625,0,1,1,1.625-1.625A1.623,1.623,0,0,1,12.292,11.417Z" transform="translate(-1.458 -1.667)"/></g></svg>