<svg xmlns="http://www.w3.org/2000/svg" width="22" height="22" viewBox="0 0 22 22"><defs><style>.a{fill:#f57b52;}.b{fill:#fff;}</style></defs><g transform="translate(-96.5 -816.5)"><path class="a" d="M98.488,829.5H97.5a1,1,0,0,1-1-1v-2a1,1,0,0,1,1-1h.988a.978.978,0,0,0,.937-.652,8.235,8.235,0,0,1,.489-1.173.979.979,0,0,0-.2-1.129l-.7-.7a1,1,0,0,1,0-1.414l1.416-1.416a1,1,0,0,1,1.414,0l.7.7a.979.979,0,0,0,1.129.2,8.238,8.238,0,0,1,1.173-.489.978.978,0,0,0,.652-.937V817.5a1,1,0,0,1,1-1h2a1,1,0,0,1,1,1v.988a.978.978,0,0,0,.652.937,8.238,8.238,0,0,1,1.173.489.979.979,0,0,0,1.129-.2l.7-.7a1,1,0,0,1,1.414,0l1.416,1.416a1,1,0,0,1,0,1.414l-.7.7a.979.979,0,0,0-.2,1.129,8.235,8.235,0,0,1,.489,1.173.978.978,0,0,0,.937.652h.988a1,1,0,0,1,1,1v2a1,1,0,0,1-1,1h-.988a.978.978,0,0,0-.937.652,8.235,8.235,0,0,1-.489,1.173.979.979,0,0,0,.2,1.129l.7.7a1,1,0,0,1,0,1.414l-1.416,1.416a1,1,0,0,1-1.414,0l-.7-.7a.979.979,0,0,0-1.129-.2,8.238,8.238,0,0,1-1.173.489.978.978,0,0,0-.652.937v.988a1,1,0,0,1-1,1h-2a1,1,0,0,1-1-1v-.988a.978.978,0,0,0-.652-.937,8.238,8.238,0,0,1-1.173-.489.979.979,0,0,0-1.129.2l-.7.7a1,1,0,0,1-1.414,0l-1.416-1.416a1,1,0,0,1,0-1.414l.7-.7a.979.979,0,0,0,.2-1.129,8.235,8.235,0,0,1-.489-1.173A.978.978,0,0,0,98.488,829.5Z"/><circle class="b" cx="4" cy="4" r="4" transform="translate(103.5 823.5)"/></g></svg>